<svg width="9" height="10" viewBox="0 0 9 10" fill="none" xmlns="http://www.w3.org/2000/svg">
<path d="M8.00008 5.58216H5.08342V8.49883C5.08342 8.65354 5.02196 8.80191 4.91256 8.91131C4.80316 9.02071 4.65479 9.08216 4.50008 9.08216C4.34537 9.08216 4.197 9.02071 4.0876 8.91131C3.97821 8.80191 3.91675 8.65354 3.91675 8.49883V5.58216H1.00008C0.845372 5.58216 0.696999 5.52071 0.587603 5.41131C0.478206 5.30191 0.416748 5.15354 0.416748 4.99883C0.416748 4.84412 0.478206 4.69575 0.587603 4.58635C0.696999 4.47695 0.845372 4.4155 1.00008 4.4155H3.91675V1.49883C3.91675 1.34412 3.97821 1.19575 4.0876 1.08635C4.197 0.976955 4.34537 0.915497 4.50008 0.915497C4.65479 0.915497 4.80316 0.976955 4.91256 1.08635C5.02196 1.19575 5.08342 1.34412 5.08342 1.49883V4.4155H8.00008C8.15479 4.4155 8.30316 4.47695 8.41256 4.58635C8.52196 4.69575 8.58342 4.84412 8.58342 4.99883C8.58342 5.15354 8.52196 5.30191 8.41256 5.41131C8.30316 5.52071 8.15479 5.58216 8.00008 5.58216Z" fill="white"/>
</svg>
