<svg width="20" height="20" viewBox="0 0 20 20" fill="none" xmlns="http://www.w3.org/2000/svg">
<g clip-path="url(#clip0_1647_323)">
<path d="M10.0164 2.56273C7.30823 2.56273 5.10732 4.76364 5.10732 7.47182V9.83636C5.10732 10.3355 4.8946 11.0964 4.64096 11.5218L3.70005 13.0845C3.11914 14.05 3.52005 15.1218 4.58369 15.4818C8.11005 16.66 11.9146 16.66 15.441 15.4818C16.431 15.1545 16.8646 13.9845 16.3246 13.0845L15.3837 11.5218C15.1382 11.0964 14.9255 10.3355 14.9255 9.83636V7.47182C14.9255 4.77182 12.7164 2.56273 10.0164 2.56273Z" stroke="#222222" stroke-width="1.5" stroke-miterlimit="10" stroke-linecap="round"/>
<path d="M11.53 2.8C11.2763 2.72636 11.0145 2.66909 10.7445 2.63636C9.95905 2.53818 9.20632 2.59545 8.50269 2.8C8.73996 2.19455 9.32905 1.76909 10.0163 1.76909C10.7036 1.76909 11.2927 2.19455 11.53 2.8Z" stroke="#222222" stroke-width="1.5" stroke-miterlimit="10" stroke-linecap="round" stroke-linejoin="round"/>
<path d="M12.4709 15.7764C12.4709 17.1264 11.3663 18.2309 10.0163 18.2309C9.3454 18.2309 8.72358 17.9527 8.28177 17.5109C7.83995 17.0691 7.56177 16.4473 7.56177 15.7764" stroke="#222222" stroke-width="1.5" stroke-miterlimit="10"/>
</g>
<defs>
<clipPath id="clip0_1647_323">
<rect width="19.6364" height="19.6364" fill="white" transform="translate(0.181885 0.181818)"/>
</clipPath>
</defs>
</svg>
