<svg width="20" height="20" viewBox="0 0 20 20" fill="none" xmlns="http://www.w3.org/2000/svg">
<path d="M14.1667 16.6667H18.3334V15C18.3334 13.6193 17.2141 12.5 15.8334 12.5C15.0371 12.5 14.3277 12.8723 13.8699 13.4524M14.1667 16.6667H5.83341M14.1667 16.6667V15C14.1667 14.4531 14.0614 13.9309 13.8699 13.4524M5.83341 16.6667H1.66675V15C1.66675 13.6193 2.78604 12.5 4.16675 12.5C4.96309 12.5 5.67246 12.8723 6.13029 13.4524M5.83341 16.6667V15C5.83341 14.4531 5.93877 13.9309 6.13029 13.4524M6.13029 13.4524C6.74467 11.9175 8.24576 10.8333 10.0001 10.8333C11.7544 10.8333 13.2555 11.9175 13.8699 13.4524M12.5001 5.83333C12.5001 7.21404 11.3808 8.33333 10.0001 8.33333C8.61937 8.33333 7.50008 7.21404 7.50008 5.83333C7.50008 4.45262 8.61937 3.33333 10.0001 3.33333C11.3808 3.33333 12.5001 4.45262 12.5001 5.83333ZM17.5001 8.33333C17.5001 9.2538 16.7539 9.99999 15.8334 9.99999C14.9129 9.99999 14.1667 9.2538 14.1667 8.33333C14.1667 7.41285 14.9129 6.66666 15.8334 6.66666C16.7539 6.66666 17.5001 7.41285 17.5001 8.33333ZM5.83341 8.33333C5.83341 9.2538 5.08722 9.99999 4.16675 9.99999C3.24627 9.99999 2.50008 9.2538 2.50008 8.33333C2.50008 7.41285 3.24627 6.66666 4.16675 6.66666C5.08722 6.66666 5.83341 7.41285 5.83341 8.33333Z" stroke="#595959" stroke-width="1.5" stroke-linecap="round" stroke-linejoin="round"/>
</svg>
