<svg width="18" height="14" viewBox="0 0 18 14" fill="none" xmlns="http://www.w3.org/2000/svg">
<path d="M10.6851 0.25H10.7151C10.914 0.25 11.1047 0.329018 11.2454 0.46967C11.386 0.610322 11.4651 0.801088 11.4651 1C11.4651 1.19891 11.386 1.38968 11.2454 1.53033C11.1047 1.67098 10.914 1.75 10.7151 1.75C9.42306 1.75 8.44006 1.75 7.65706 1.813C6.87206 1.876 6.37406 1.996 6.02106 2.184C5.2899 2.58028 4.70288 3.19775 4.34406 3.948C4.15406 4.342 4.04006 4.828 3.98106 5.586C3.92106 6.35 3.92106 7.324 3.92106 8.68V8.79L5.04106 7.67C5.18323 7.53752 5.37128 7.4654 5.56558 7.46883C5.75988 7.47225 5.94526 7.55097 6.08268 7.68838C6.22009 7.82579 6.2988 8.01118 6.30223 8.20548C6.30566 8.39978 6.23354 8.58782 6.10106 8.73L3.70106 11.13C3.6292 11.2018 3.5435 11.2583 3.44917 11.296C3.35483 11.3336 3.25382 11.3518 3.15227 11.3493C3.05071 11.3467 2.95073 11.3236 2.85839 11.2813C2.76604 11.2389 2.68326 11.1783 2.61506 11.103L0.444056 8.703C0.316485 8.55466 0.251931 8.36234 0.264164 8.16708C0.276397 7.97181 0.36445 7.78905 0.509538 7.6578C0.654625 7.52654 0.84526 7.45717 1.04077 7.4645C1.23628 7.47182 1.4212 7.55526 1.55606 7.697L2.42106 8.653V8.648C2.42106 7.331 2.42106 6.298 2.48606 5.469C2.55206 4.625 2.68806 3.927 2.99506 3.293C3.4922 2.25829 4.30392 1.40736 5.31406 0.862C5.93906 0.527 6.68406 0.386 7.53806 0.318C8.38806 0.25 9.42906 0.25 10.6851 0.25ZM14.8471 2.65C14.9488 2.65251 15.049 2.67571 15.1415 2.71817C15.2339 2.76064 15.3168 2.82148 15.3851 2.897L17.5561 5.297C17.6836 5.44534 17.7482 5.63766 17.7359 5.83292C17.7237 6.02819 17.6357 6.21095 17.4906 6.3422C17.3455 6.47346 17.1549 6.54283 16.9593 6.5355C16.7638 6.52818 16.5789 6.44474 16.4441 6.303L15.5791 5.347V5.352C15.5791 6.669 15.5791 7.702 15.5141 8.531C15.4481 9.375 15.3131 10.073 15.0051 10.707C14.5079 11.7417 13.6962 12.5926 12.6861 13.138C12.0611 13.473 11.3161 13.614 10.4621 13.682C9.61206 13.75 8.57106 13.75 7.31606 13.75H7.28606C7.08714 13.75 6.89638 13.671 6.75573 13.5303C6.61507 13.3897 6.53606 13.1989 6.53606 13C6.53606 12.8011 6.61507 12.6103 6.75573 12.4697C6.89638 12.329 7.08714 12.25 7.28606 12.25C8.57706 12.25 9.56006 12.25 10.3431 12.187C11.1281 12.124 11.6261 12.004 11.9791 11.815C12.7101 11.419 13.2971 10.8019 13.6561 10.052C13.8461 9.658 13.9601 9.172 14.0191 8.414C14.0791 7.65 14.0791 6.676 14.0791 5.32V5.21L12.9591 6.33C12.8169 6.46248 12.6288 6.5346 12.4345 6.53117C12.2402 6.52775 12.0548 6.44903 11.9174 6.31162C11.78 6.17421 11.7013 5.98882 11.6979 5.79452C11.6945 5.60022 11.7666 5.41218 11.8991 5.27L14.2991 2.87C14.3708 2.79816 14.4563 2.74161 14.5505 2.7038C14.6447 2.66598 14.7456 2.64768 14.8471 2.65Z" fill="#595959"/>
</svg>
