<svg width="14" height="18" viewBox="0 0 14 18" fill="none" xmlns="http://www.w3.org/2000/svg">
<path d="M5.03041 10.1363C4.73752 9.84344 4.26264 9.84344 3.96975 10.1363C3.67686 10.4292 3.67686 10.9041 3.96975 11.197L4.50008 10.6667L5.03041 10.1363ZM6.16675 12.3333L5.63642 12.8637C5.92931 13.1566 6.40418 13.1566 6.69708 12.8637L6.16675 12.3333ZM10.0304 9.53033C10.3233 9.23744 10.3233 8.76256 10.0304 8.46967C9.73752 8.17678 9.26264 8.17678 8.96975 8.46967L9.50008 9L10.0304 9.53033ZM12.8334 4.83333H12.0834V14.8333H12.8334H13.5834V4.83333H12.8334ZM11.1667 16.5V15.75H2.83341V16.5V17.25H11.1667V16.5ZM1.16675 14.8333H1.91675V4.83333H1.16675H0.416748V14.8333H1.16675ZM2.83341 3.16667V3.91667H4.50008V3.16667V2.41667H2.83341V3.16667ZM9.50008 3.16667V3.91667H11.1667V3.16667V2.41667H9.50008V3.16667ZM2.83341 16.5V15.75C2.32715 15.75 1.91675 15.3396 1.91675 14.8333H1.16675H0.416748C0.416748 16.168 1.49873 17.25 2.83341 17.25V16.5ZM12.8334 14.8333H12.0834C12.0834 15.3396 11.673 15.75 11.1667 15.75V16.5V17.25C12.5014 17.25 13.5834 16.168 13.5834 14.8333H12.8334ZM12.8334 4.83333H13.5834C13.5834 3.49865 12.5014 2.41667 11.1667 2.41667V3.16667V3.91667C11.673 3.91667 12.0834 4.32707 12.0834 4.83333H12.8334ZM1.16675 4.83333H1.91675C1.91675 4.32707 2.32715 3.91667 2.83341 3.91667V3.16667V2.41667C1.49873 2.41667 0.416748 3.49865 0.416748 4.83333H1.16675ZM4.50008 10.6667L3.96975 11.197L5.63642 12.8637L6.16675 12.3333L6.69708 11.803L5.03041 10.1363L4.50008 10.6667ZM6.16675 12.3333L6.69708 12.8637L10.0304 9.53033L9.50008 9L8.96975 8.46967L5.63642 11.803L6.16675 12.3333ZM6.16675 1.5V2.25H7.83341V1.5V0.75H6.16675V1.5ZM7.83341 4.83333V4.08333H6.16675V4.83333V5.58333H7.83341V4.83333ZM6.16675 4.83333V4.08333C5.66049 4.08333 5.25008 3.67293 5.25008 3.16667H4.50008H3.75008C3.75008 4.50135 4.83206 5.58333 6.16675 5.58333V4.83333ZM9.50008 3.16667H8.75008C8.75008 3.67293 8.33968 4.08333 7.83341 4.08333V4.83333V5.58333C9.1681 5.58333 10.2501 4.50135 10.2501 3.16667H9.50008ZM7.83341 1.5V2.25C8.33968 2.25 8.75008 2.66041 8.75008 3.16667H9.50008H10.2501C10.2501 1.83198 9.1681 0.75 7.83341 0.75V1.5ZM6.16675 1.5V0.75C4.83206 0.75 3.75008 1.83198 3.75008 3.16667H4.50008H5.25008C5.25008 2.66041 5.66049 2.25 6.16675 2.25V1.5Z" fill="#595959"/>
</svg>
