<svg width="20" height="20" viewBox="0 0 20 20" fill="none" xmlns="http://www.w3.org/2000/svg">
<path d="M10.0001 1.81818C7.8565 1.81818 6.11377 3.56091 6.11377 5.70455C6.11377 7.80727 7.75832 9.50909 9.90195 9.58273C9.96741 9.57455 10.0329 9.57455 10.082 9.58273C10.0983 9.58273 10.1065 9.58273 10.1229 9.58273C10.131 9.58273 10.131 9.58273 10.1392 9.58273C12.2338 9.50909 13.8783 7.80727 13.8865 5.70455C13.8865 3.56091 12.1438 1.81818 10.0001 1.81818Z" fill="#222222"/>
<path d="M14.1564 11.7591C11.8736 10.2373 8.1509 10.2373 5.85181 11.7591C4.81272 12.4545 4.23999 13.3955 4.23999 14.4018C4.23999 15.4082 4.81272 16.3409 5.84363 17.0282C6.98908 17.7973 8.49454 18.1818 9.99999 18.1818C11.5054 18.1818 13.0109 17.7973 14.1564 17.0282C15.1873 16.3327 15.76 15.4 15.76 14.3855C15.7518 13.3791 15.1873 12.4464 14.1564 11.7591Z" fill="#222222"/>
</svg>
