<svg width="24" height="25" viewBox="0 0 24 25" fill="none" xmlns="http://www.w3.org/2000/svg">
<path fill-rule="evenodd" clip-rule="evenodd" d="M6.41667 0C7.061 0 7.58333 0.522334 7.58333 1.16667V2.33333H15.75V1.16667C15.75 0.522334 16.2723 0 16.9167 0C17.561 0 18.0833 0.522334 18.0833 1.16667V2.36214C21.0311 2.65481 23.3333 5.14188 23.3333 8.16667V18.6667C23.3333 21.8883 20.7217 24.5 17.5 24.5H5.83333C2.61167 24.5 0 21.8883 0 18.6667V8.16667C0 5.14188 2.30223 2.65481 5.25 2.36214V1.16667C5.25 0.522334 5.77234 0 6.41667 0ZM2.53249 7H20.8008C20.3204 5.64061 19.0239 4.66667 17.5 4.66667H5.83333C4.30941 4.66667 3.01297 5.64061 2.53249 7ZM21 9.33333H2.33333V18.6667C2.33333 20.5997 3.90034 22.1667 5.83333 22.1667H17.5C19.433 22.1667 21 20.5997 21 18.6667V9.33333ZM4.66667 12.8333C4.66667 12.189 5.189 11.6667 5.83333 11.6667H17.5C18.1443 11.6667 18.6667 12.189 18.6667 12.8333C18.6667 13.4777 18.1443 14 17.5 14H5.83333C5.189 14 4.66667 13.4777 4.66667 12.8333Z" fill="#222222"/>
</svg>
