<svg width="10" height="5" viewBox="0 0 10 5" fill="none" xmlns="http://www.w3.org/2000/svg">
<path d="M9.16675 1.01218C9.1683 0.957467 9.15891 0.902181 9.1394 0.851044C9.1199 0.800042 9.09 0.753038 9.05249 0.713348C9.01505 0.673837 8.97032 0.641882 8.92065 0.619598C8.8707 0.597232 8.81618 0.585013 8.76147 0.583466C8.70686 0.581958 8.65237 0.591337 8.60132 0.610809C8.5503 0.630298 8.50333 0.659248 8.46362 0.696747L4.99976 3.96921L1.53491 0.696747C1.49539 0.658491 1.44842 0.627995 1.39722 0.60788C1.34596 0.587806 1.29112 0.578361 1.23608 0.579559C1.18091 0.580766 1.12637 0.593294 1.07593 0.615692C1.0256 0.638089 0.979963 0.670364 0.942139 0.710419C0.904367 0.750492 0.874657 0.797562 0.855225 0.849091C0.835769 0.900716 0.826899 0.956064 0.828857 1.0112C0.830859 1.06624 0.843899 1.12035 0.866943 1.17038C0.890036 1.22048 0.922994 1.26587 0.963623 1.30319L4.71362 4.84421C4.79093 4.9173 4.89337 4.95841 4.99976 4.95847C5.10622 4.95847 5.20853 4.91735 5.28589 4.84421L9.03589 1.30319C9.07567 1.2656 9.10825 1.22033 9.13062 1.17038C9.15292 1.12056 9.16515 1.06674 9.16675 1.01218Z" fill="white"/>
<path d="M9.16675 1.01218C9.1683 0.957467 9.15891 0.902181 9.1394 0.851044C9.1199 0.800042 9.09 0.753038 9.05249 0.713348C9.01505 0.673837 8.97032 0.641882 8.92065 0.619598C8.8707 0.597232 8.81618 0.585013 8.76147 0.583466C8.70686 0.581958 8.65237 0.591337 8.60132 0.610809C8.5503 0.630298 8.50333 0.659248 8.46362 0.696747L4.99976 3.96921L1.53491 0.696747C1.49539 0.658491 1.44842 0.627995 1.39722 0.60788C1.34596 0.587806 1.29112 0.578361 1.23608 0.579559C1.18091 0.580766 1.12637 0.593294 1.07593 0.615692C1.0256 0.638089 0.979963 0.670364 0.942139 0.710419C0.904367 0.750492 0.874657 0.797562 0.855225 0.849091C0.835769 0.900716 0.826899 0.956064 0.828857 1.0112C0.830859 1.06624 0.843899 1.12035 0.866943 1.17038C0.890036 1.22048 0.922994 1.26587 0.963623 1.30319L4.71362 4.84421C4.79093 4.9173 4.89337 4.95841 4.99976 4.95847C5.10622 4.95847 5.20853 4.91735 5.28589 4.84421L9.03589 1.30319C9.07567 1.2656 9.10825 1.22033 9.13062 1.17038C9.15292 1.12056 9.16515 1.06674 9.16675 1.01218Z" stroke="white"/>
</svg>
